<svg width="48" height="12" viewBox="0 0 48 12" fill="none" xmlns="http://www.w3.org/2000/svg">
<path d="M43.5487 4.73058C43.5487 4.95545 43.4771 5.05548 43.2735 5.05548H42.5473C42.3092 5.05548 42.2371 4.96474 42.2371 4.73058V4.19548C42.2371 3.9706 42.3168 3.88327 42.5473 3.88327H43.2735C43.4674 3.88327 43.5487 3.98194 43.5487 4.19548V4.73058ZM43.517 6.09055C43.5076 6.17693 43.4661 6.24705 43.4167 6.3013C43.3669 6.3554 43.2832 6.38253 43.1744 6.38253C43.0752 6.38253 43.0087 6.36349 42.9746 6.32502C42.9405 6.28687 42.9199 6.21143 42.913 6.09919C42.8969 6.20088 42.8731 6.26712 42.848 6.3044C42.8221 6.34263 42.7964 6.3604 42.7737 6.36896C42.7509 6.37745 42.6876 6.38253 42.5853 6.38253H42.2502V5.90517H42.6721C42.7476 5.90517 42.7829 5.90208 42.8002 5.88201C42.8194 5.8598 42.8228 5.81792 42.8228 5.74685H42.2502V5.23308H43.5245V5.59756C43.5245 5.84037 43.5263 6.00464 43.517 6.09055ZM43.0936 7.11538V7.43068H42.8032V7.11538H42.54V7.43068H42.2496V6.6028H43.5231V7.43068H43.2331V7.11538H43.0936ZM43.5236 8.58719L42.249 8.88076V8.35914L42.4768 8.33146V8.14815L42.249 8.11721V7.5898L43.5236 7.85117V8.58719ZM42.2559 3.27519L42.802 3.13891H42.2559V2.62451H43.53V3.13891H43.0349L43.53 3.29581V3.77808L42.9547 3.55797L42.2559 3.80545V3.27519ZM45.1487 7.9155e-05H37.7858V11.5195H45.1487C47.2341 11.5195 48 10.8527 48 8.73893V2.48269C48 0.666777 47.1206 7.9155e-05 45.1487 7.9155e-05ZM42.7009 8.1441V8.31853C42.8437 8.29291 43.0316 8.26713 43.2427 8.24056C42.9999 8.19042 42.8121 8.15846 42.7009 8.1441ZM43.1638 4.40393H42.6239C42.5602 4.40393 42.5313 4.42162 42.5313 4.46874C42.5313 4.51879 42.5602 4.53473 42.6239 4.53473H43.1638C43.2275 4.53473 43.2577 4.51554 43.2577 4.46874C43.2577 4.42162 43.2275 4.40393 43.1638 4.40393ZM43.036 5.86979C43.0464 5.89343 43.0793 5.90517 43.1356 5.90517H43.2058C43.246 5.90517 43.2728 5.89375 43.2854 5.87122C43.2977 5.84814 43.3042 5.80705 43.3042 5.74677H43.0207C43.0207 5.80531 43.0257 5.84616 43.036 5.86979ZM30.0826 9.53674e-07V11.5195H37.3461V8.89496H34.5797V6.51166H37.3461V3.88707H34.5797V2.62459H37.3461V9.53674e-07H30.0826ZM21.8525 9.53674e-07V2.62459H24.6617L21.5831 9.05106V11.5195H29.6836V8.89488H26.591L29.6836 2.41169V9.53674e-07H21.8525ZM12.2431 9.53674e-07L10.2144 11.5195H14.8534L15.1088 9.02259H16.3998L16.6551 11.5195H21.3083L19.2796 9.53674e-07H12.2431ZM15.7613 2.5678L16.2295 6.48319H15.2791L15.7613 2.5678ZM4.99369 8.88068C5.50436 8.88068 5.64619 8.6539 5.64619 8.05796V3.44731C5.64619 2.85137 5.49008 2.62459 4.99369 2.62459H4.49713V8.88068H4.99369ZM0 9.53674e-07H7.36278C9.33472 9.53674e-07 10.2142 0.666936 10.2142 2.48269V8.73885C10.2142 10.8527 9.44831 11.5194 7.36278 11.5194H0V9.53674e-07Z" fill="white"/>
</svg>
