<svg width="95" height="17" viewBox="0 0 95 17" fill="none" xmlns="http://www.w3.org/2000/svg">
<path d="M20.2961 8.00912C20.2181 7.16857 19.8592 6.39327 19.2875 5.82522L19.285 5.82266C18.6856 5.20344 17.8331 4.82986 16.8824 4.77101C16.6507 4.74286 16.4857 4.68401 16.3623 4.58422C16.2276 4.47931 16.1293 4.32706 16.0324 4.1697C15.4406 3.14747 14.6775 2.28645 13.762 1.60966C12.2308 0.458213 10.3218 -0.107274 8.38636 0.0168263C6.45722 0.140926 4.63008 0.94054 3.24241 2.26726C2.03229 3.40975 1.17098 4.97571 0.817136 6.67473C0.77684 6.84361 0.715138 7.0611 0.590475 7.24278C0.531291 7.33105 0.458256 7.41549 0.387739 7.49609C0.270631 7.63043 0.149745 7.76988 0.079228 7.94388C-0.0290656 8.20103 -0.0265472 8.50425 0.0880426 8.75628C0.159819 8.92132 0.274408 9.0531 0.38522 9.17976C0.454478 9.25908 0.526254 9.34096 0.585438 9.43052C0.637066 9.50728 0.681139 9.59044 0.716397 9.67744C0.7781 9.82969 0.815876 9.99601 0.852394 10.1572C0.867505 10.2212 0.882616 10.2864 0.898986 10.3517C1.0375 10.9159 1.23394 11.466 1.48201 11.9842C2.59139 14.2858 4.63763 15.9247 7.09439 16.4812C7.6963 16.6168 8.30199 16.6846 8.9039 16.6846C10.7688 16.6846 12.5884 16.0424 14.0806 14.8231C14.8525 14.1937 15.506 13.4209 16.0248 12.5253C16.1268 12.3577 16.2301 12.1991 16.3711 12.0904C16.4492 12.0289 16.5424 11.9829 16.6482 11.9535C16.7653 11.9202 16.895 11.9074 17.0196 11.8946L17.0788 11.8882C18.1315 11.8051 19.1137 11.2293 19.7043 10.3466C20.1639 9.68 20.3729 8.84968 20.2961 8.00912ZM16.7476 10.6127L16.7539 10.5858C16.7829 10.4732 16.8144 10.3517 16.8421 10.2327L16.8471 10.2071C16.9227 9.86295 16.9944 9.53799 17.2463 9.29362L17.2488 9.29107C17.2765 9.26164 17.3055 9.23221 17.3357 9.20279C17.3886 9.15033 17.4427 9.09532 17.4918 9.03775C17.6732 8.83305 17.7689 8.57845 17.7626 8.32129C17.7588 8.07309 17.6606 7.82873 17.4868 7.63427C17.4389 7.57925 17.3873 7.52808 17.3382 7.47818C17.2828 7.42189 17.2249 7.36432 17.1733 7.30163C16.9869 7.09053 16.9239 6.80267 16.8622 6.52376L16.8534 6.48666C16.8257 6.36256 16.793 6.23846 16.7627 6.11948L16.7489 6.0683C16.7212 5.95828 16.6973 5.85209 16.701 5.74974C16.7036 5.65378 16.735 5.5783 16.793 5.52712C16.8572 5.47083 16.9579 5.44141 17.0775 5.44141C17.109 5.44141 17.1418 5.44396 17.1745 5.4478C18.0975 5.56806 18.9676 6.19368 19.3945 7.04191C19.7874 7.80442 19.8013 8.76524 19.431 9.55078V9.55462C19.0583 10.3619 18.3267 10.9683 17.4717 11.1769C17.1695 11.2511 16.8647 11.3035 16.7376 11.0758C16.667 10.9402 16.7086 10.7726 16.7501 10.6114L16.7476 10.6127ZM3.55344 13.861C2.42265 12.771 1.64949 11.3662 1.37497 9.90901C1.31705 9.53671 1.47823 9.13498 1.79682 8.85863C1.96429 8.71278 2.14814 8.67568 2.38236 8.67568C2.40754 8.67568 2.43398 8.67568 2.46043 8.67568C2.97545 8.67568 3.54966 8.67568 4.15661 8.6744C5.18288 8.67313 6.24315 8.67057 7.07928 8.67568C7.14728 8.67696 7.2115 8.67696 7.2732 8.67568C7.54897 8.6744 7.76682 8.67185 7.99851 8.87399C8.01488 8.88806 8.03125 8.90213 8.04762 8.91621C8.22392 9.06973 8.40524 9.22838 8.64072 9.28851C9.05627 9.40877 9.52344 9.23477 9.75262 8.87271C9.98306 8.49657 9.96039 8.05646 9.69218 7.72254C9.41514 7.37839 8.9656 7.25813 8.54628 7.41677C8.44806 7.45515 8.34984 7.51017 8.2554 7.58437C8.20503 7.62275 8.15718 7.66497 8.11059 7.70591C8.02118 7.78395 7.93555 7.85944 7.83859 7.90805C7.724 7.96946 7.58171 7.99889 7.39031 8.00145C7.28579 8.00145 7.18883 8.00145 7.08683 8.00145C7.02765 8.00145 6.96721 8.00145 6.90424 8.00145C6.44337 8.00145 5.87042 8.00145 5.26977 8.00145C4.18683 8.00145 3.06738 8.00145 2.30051 8.00145C2.08644 8.00913 1.87992 7.91957 1.72 7.74941C1.50845 7.52424 1.39386 7.30419 1.36994 7.07774C1.34223 6.83081 1.40268 6.56982 1.46186 6.34465C1.94666 4.49978 3.18323 2.85066 4.85422 1.81948C6.25952 0.929026 7.97711 0.533697 9.69092 0.708972C11.4022 0.882968 13.009 1.61477 14.2178 2.7675C14.4395 2.9786 14.6032 3.15003 14.7643 3.34066C14.7958 3.38032 14.8311 3.42382 14.8714 3.47244C15.1069 3.7603 15.4632 4.19657 15.5765 4.56503C15.6546 4.89639 15.472 5.0819 15.1522 5.27509C14.4105 5.73566 13.8564 6.41629 13.592 7.18904C13.3011 8.02192 13.3414 8.95971 13.7016 9.76188C14.0088 10.4745 14.5188 11.0297 15.3071 11.5057C15.3977 11.5709 15.4582 11.6259 15.5023 11.6861C15.5765 11.782 15.6093 11.9036 15.5942 12.0277V12.0302C15.5753 12.1876 15.4947 12.3347 15.4191 12.4575C14.894 13.2891 14.141 14.0696 13.2973 14.653C10.3445 16.7243 6.15374 16.3827 3.54966 13.8585L3.55344 13.861ZM14.0403 8.78059C13.9471 8.18184 14.0478 7.53831 14.3261 6.96771C14.6069 6.39071 15.0527 5.92501 15.5791 5.65762C15.6798 5.61156 15.7642 5.58726 15.8334 5.58726C15.8737 5.58726 15.909 5.59493 15.9392 5.61028C16.0853 5.68193 16.147 5.93397 16.2125 6.20136C16.2225 6.24102 16.2326 6.28068 16.2427 6.32162C16.322 6.64019 16.4051 6.96899 16.2868 7.25557C16.2439 7.3592 16.1759 7.45387 16.1029 7.55622C16.0576 7.61891 16.011 7.68416 15.9707 7.75197C15.8498 7.94899 15.7906 8.18312 15.8045 8.40957C15.8234 8.73326 15.9619 8.93028 16.0966 9.12219C16.2528 9.3448 16.4013 9.5559 16.3283 9.96786V9.9717C16.2956 10.1636 16.2477 10.353 16.2011 10.5282C16.1407 10.7496 16.0588 10.9914 15.8561 11.072C15.6433 11.1474 15.4871 11.0208 15.3071 10.8737C15.2643 10.8391 15.2202 10.802 15.1749 10.77C14.5654 10.2967 14.1511 9.57253 14.0403 8.78187V8.78059Z" fill="#8E8E8E"/>
<path d="M23.939 5.07919H29.5929V5.91212H25.07V7.14517C25.07 7.50868 25.3902 7.80288 25.7857 7.80288H29.3937V8.64104H25.07V10.7646H29.7423V11.6066H23.9404V5.07788L23.939 5.07919Z" fill="#8E8E8E"/>
<path d="M32.7677 5.07788H33.9575L36.9959 11.6066H35.9039L35.0978 9.79826L31.5791 9.81264L30.7792 11.6066H29.7417L32.7689 5.07788H32.7677ZM34.3451 8.95748C34.5221 8.95748 34.6385 8.76396 34.563 8.59528L33.5576 6.34624C33.5031 6.23378 33.4821 6.15925 33.4709 6.13179L33.3409 5.85197L32.1189 8.59528C32.0434 8.76396 32.1598 8.95748 32.3368 8.95748H34.3451Z" fill="#8E8E8E"/>
<path d="M41.0518 5.07918C42.5757 5.06098 43.5121 5.67058 43.5249 6.75459C43.5288 7.13412 43.3877 7.46946 43.1106 7.76061C43.0041 7.86849 42.922 7.96078 42.8399 8.04136C42.6924 8.18694 42.713 8.4313 42.8823 8.54958C43.235 8.79653 43.3851 9.23586 43.3915 9.81556L43.4121 11.5404L42.3923 11.5521L42.3743 10.0599C42.3679 9.5504 42.2409 9.19946 41.992 9.0071C41.7316 8.81603 41.3057 8.72765 40.7118 8.73544L38.7851 8.75884L38.8184 11.5949L37.7986 11.6066L37.7217 5.11817L41.0492 5.07788L41.0518 5.07918ZM38.7787 8.04526L40.8401 8.02057C41.9048 8.00757 42.4936 7.60204 42.4846 6.86897C42.4756 6.1372 41.8779 5.77326 40.8132 5.78626L38.7517 5.81095L38.7787 8.04526Z" fill="#8E8E8E"/>
<path d="M64.2651 5.07918C65.7891 5.06098 66.7255 5.67058 66.7383 6.75459C66.7422 7.13412 66.6011 7.46946 66.324 7.76061C66.2175 7.86849 66.1354 7.96078 66.0533 8.04136C65.9058 8.18694 65.9263 8.4313 66.0957 8.54958C66.4484 8.79653 66.5985 9.23586 66.6049 9.81556L66.6254 11.5404L65.6056 11.5521L65.5877 10.0599C65.5813 9.5504 65.4543 9.19946 65.2054 9.0071C64.945 8.81603 64.5191 8.72765 63.9252 8.73544L61.9985 8.75884L62.0318 11.5949L61.012 11.6066L60.9351 5.11817L64.2626 5.07788L64.2651 5.07918ZM61.9921 8.04526L64.0535 8.02057C65.1182 8.00757 65.707 7.60204 65.698 6.86897C65.689 6.1372 65.0912 5.77326 64.0265 5.78626L61.9651 5.81095L61.9921 8.04526Z" fill="#8E8E8E"/>
<path d="M50.0537 5.07788V5.97227H47.7719C47.518 5.97227 47.3122 6.17887 47.3122 6.43384V11.6066H46.2768V6.43384C46.2768 6.17887 46.071 5.97227 45.8171 5.97227H43.5249V5.07788H50.0537Z" fill="#8E8E8E"/>
<path d="M51.7317 5.07788V7.81988H55.629V5.07788H56.5826V11.6066H55.629V9.15231C55.629 8.91171 55.4503 8.71819 55.2308 8.71819H52.1312C51.9105 8.71819 51.7329 8.91302 51.7329 9.15231V11.6066H50.7793V5.07788H51.7329H51.7317Z" fill="#8E8E8E"/>
<path d="M74.9982 5.07788V9.00748C74.9982 9.46895 75.0992 9.8533 75.301 10.1592C75.6 10.6207 76.1034 10.8521 76.8126 10.8521C77.6623 10.8521 78.2398 10.6027 78.5451 10.104C78.71 9.83273 78.7917 9.46767 78.7917 9.00876V5.07917H79.796V8.65013C79.796 9.43167 79.6734 10.0333 79.4293 10.4549C78.9808 11.2223 78.135 11.6066 76.8918 11.6066C75.6486 11.6066 74.804 11.2223 74.3594 10.4549C74.1153 10.0333 73.9927 9.43167 73.9927 8.65013V5.07917H74.997L74.9982 5.07788Z" fill="#8E8E8E"/>
<path d="M80.521 5.07917H81.8439L85.6727 9.96481C85.7735 10.0934 85.9776 10.0214 85.9776 9.85553V5.07788H87.0498V11.6066H85.7886L81.5944 6.33786V11.6066H80.5223V5.07788L80.521 5.07917Z" fill="#8E8E8E"/>
<path d="M87.7754 5.07917H90.9753C92.0622 5.07917 92.9044 5.39802 93.5033 6.03444C94.0376 6.60914 94.3042 7.34585 94.3042 8.24326C94.3042 8.93625 94.1459 9.56367 93.8307 10.123C93.2744 11.1129 92.319 11.6066 90.9643 11.6066H87.7754V5.07788V5.07917ZM90.7623 10.8519C91.1213 10.8519 91.4159 10.8211 91.6471 10.7581C92.0597 10.6424 92.3969 10.4199 92.6598 10.0921C92.8691 9.82853 93.0201 9.49039 93.1126 9.07897C93.1661 8.8334 93.1929 8.60454 93.1929 8.39498C93.1929 7.58627 93.0006 6.95757 92.6148 6.51015C92.2289 6.06272 91.6082 5.83901 90.7525 5.83901H89.1398C88.9913 5.83901 88.8708 5.9663 88.8708 6.12315V10.5678C88.8708 10.7247 88.9913 10.8519 89.1398 10.8519H90.7635H90.7623Z" fill="#8E8E8E"/>
<path d="M70.364 5.07788C71.7573 5.07788 72.9048 5.6506 73.5327 6.64261C73.8383 7.13862 73.9925 7.71134 73.9925 8.33565C73.9925 10.2826 72.4616 11.6066 70.3654 11.6066C68.2691 11.6066 66.7383 10.2826 66.7383 8.33565C66.7383 6.38866 68.2386 5.07788 70.3654 5.07788H70.364ZM70.364 10.7535C71.7573 10.7535 72.6297 9.79854 72.6297 8.33565C72.6297 7.61082 72.431 7.0381 72.0171 6.59235C71.6045 6.15984 71.053 5.94292 70.364 5.94292C69.675 5.94292 69.1401 6.15984 68.7262 6.59235C68.3136 7.0381 68.0983 7.61082 68.0983 8.33565C68.0983 9.79854 68.9707 10.7535 70.3626 10.7535H70.364Z" fill="#8E8E8E"/>
</svg>
