<?xml version="1.0" encoding="UTF-8"?>
<svg xmlns="http://www.w3.org/2000/svg" width="127" height="22" viewBox="0 0 127 22" fill="none">
  <g clip-path="url(#clip0_418_277)">
    <path d="M27.6836 10.5614C27.5771 9.45293 27.0875 8.43053 26.3077 7.68145L26.3043 7.67808C25.4867 6.86152 24.3238 6.36888 23.027 6.29127C22.711 6.25415 22.4859 6.17655 22.3176 6.04495C22.1338 5.90661 21.9998 5.70584 21.8676 5.49833C21.0603 4.15032 20.0194 3.01489 18.7706 2.1224C16.682 0.604 14.078 -0.141706 11.438 0.0219447C8.80653 0.185595 6.31421 1.24004 4.42136 2.98958C2.77069 4.49618 1.59581 6.56121 1.11315 8.8017C1.05819 9.0244 0.974022 9.31121 0.803974 9.55078C0.723245 9.66719 0.623621 9.77854 0.527432 9.88483C0.36769 10.062 0.202795 10.2459 0.106606 10.4753C-0.0411119 10.8144 -0.0376766 11.2143 0.11863 11.5466C0.216536 11.7643 0.372843 11.938 0.523997 12.1051C0.618468 12.2097 0.716374 12.3177 0.797104 12.4357C0.867528 12.537 0.927646 12.6466 0.97574 12.7614C1.05991 12.9621 1.11143 13.1815 1.16125 13.394C1.18186 13.4784 1.20247 13.5644 1.2248 13.6505C1.41374 14.3945 1.6817 15.12 2.02007 15.8032C3.53333 18.8384 6.32452 20.9996 9.67566 21.7335C10.4967 21.9123 11.3229 22.0017 12.1439 22.0017C14.6878 22.0017 17.1698 21.1548 19.2052 19.5469C20.2581 18.7169 21.1496 17.6979 21.8573 16.5169C21.9964 16.2959 22.1373 16.0867 22.3296 15.9433C22.4361 15.8623 22.5632 15.8015 22.7075 15.7627C22.8673 15.7189 23.0442 15.702 23.2142 15.6851L23.295 15.6767C24.7309 15.567 26.0707 14.8078 26.8763 13.6437C27.5032 12.7647 27.7883 11.6698 27.6836 10.5614ZM22.8432 13.9946L22.8518 13.9592C22.8913 13.8107 22.9342 13.6505 22.972 13.4936L22.9789 13.4598C23.082 13.006 23.1799 12.5775 23.5234 12.2552L23.5268 12.2519C23.5646 12.213 23.6041 12.1742 23.6454 12.1354C23.7175 12.0663 23.7914 11.9937 23.8583 11.9178C24.1057 11.6479 24.2362 11.3121 24.2276 10.973C24.2225 10.6457 24.0885 10.3235 23.8515 10.067C23.7862 9.99449 23.7158 9.92701 23.6488 9.86121C23.5732 9.78698 23.4942 9.71106 23.4238 9.62839C23.1696 9.35001 23.0837 8.97041 22.9995 8.60262L22.9875 8.55369C22.9497 8.39004 22.905 8.22639 22.8638 8.06949L22.8449 8.00201C22.8071 7.85691 22.7745 7.71688 22.7797 7.58191C22.7831 7.45538 22.826 7.35584 22.905 7.28836C22.9926 7.21412 23.1301 7.17532 23.2932 7.17532C23.3362 7.17532 23.3808 7.17869 23.4255 7.18375C24.6845 7.34234 25.8714 8.16734 26.4537 9.2859C26.9896 10.2914 27.0085 11.5584 26.5035 12.5943V12.5994C25.9951 13.664 24.9972 14.4637 23.8309 14.7387C23.4186 14.8365 23.003 14.9057 22.8295 14.6054C22.7333 14.4265 22.79 14.2055 22.8466 13.993L22.8432 13.9946ZM4.84562 18.2782C3.30316 16.8408 2.24852 14.9884 1.87407 13.0667C1.79506 12.5758 2.01492 12.046 2.44949 11.6816C2.67794 11.4893 2.92871 11.4403 3.2482 11.4403C3.28255 11.4403 3.31862 11.4403 3.35469 11.4403C4.05721 11.4403 4.84046 11.4404 5.66837 11.4387C7.06826 11.437 8.51453 11.4336 9.65505 11.4403C9.74781 11.442 9.83541 11.442 9.91957 11.4403C10.2957 11.4387 10.5929 11.4353 10.9089 11.7019C10.9313 11.7204 10.9536 11.739 10.9759 11.7575C11.2164 11.96 11.4637 12.1692 11.7849 12.2485C12.3518 12.4071 12.989 12.1776 13.3016 11.7002C13.616 11.2042 13.585 10.6238 13.2192 10.1834C12.8413 9.72961 12.2281 9.57102 11.6561 9.78023C11.5221 9.83084 11.3882 9.90339 11.2593 10.0012C11.1906 10.0519 11.1254 10.1075 11.0618 10.1615C10.9399 10.2644 10.8231 10.364 10.6908 10.4281C10.5345 10.5091 10.3404 10.5479 10.0793 10.5512C9.93675 10.5512 9.80449 10.5512 9.66536 10.5512C9.58463 10.5512 9.50218 10.5512 9.4163 10.5512C8.78764 10.5512 8.0061 10.5512 7.18678 10.5512C5.7096 10.5512 4.1826 10.5512 3.13655 10.5512C2.84455 10.5614 2.56285 10.4433 2.34471 10.2189C2.05615 9.92194 1.89984 9.63176 1.8672 9.33314C1.82941 9.00753 1.91186 8.66336 1.99259 8.36642C2.65389 5.9336 4.34063 3.75891 6.61996 2.39909C8.53686 1.22486 10.8797 0.70354 13.2175 0.934675C15.5518 1.16412 17.7435 2.12915 19.3924 3.64925C19.6947 3.92762 19.918 4.15369 20.1379 4.40507C20.1808 4.45737 20.2289 4.51474 20.2839 4.57885C20.6051 4.95845 21.0912 5.53375 21.2458 6.01964C21.3523 6.45661 21.1032 6.70124 20.6669 6.95599C19.6552 7.56336 18.8995 8.4609 18.5388 9.47992C18.142 10.5782 18.197 11.8149 18.6882 12.8727C19.1073 13.8124 19.803 14.5446 20.8782 15.1723C21.0019 15.2583 21.0843 15.3308 21.1444 15.4101C21.2458 15.5367 21.2905 15.6969 21.2698 15.8606V15.864C21.2441 16.0715 21.1341 16.2655 21.0311 16.4275C20.3148 17.5241 19.2877 18.5532 18.1368 19.3226C14.1089 22.054 8.39258 21.6035 4.84046 18.2749L4.84562 18.2782ZM19.1503 11.5787C19.0231 10.7891 19.1606 9.9405 19.5402 9.18805C19.9232 8.42716 20.5312 7.81305 21.2492 7.46044C21.3866 7.39971 21.5017 7.36765 21.5962 7.36765C21.6512 7.36765 21.6993 7.37777 21.7405 7.39802C21.9397 7.4925 22.0239 7.82486 22.1132 8.17747C22.127 8.22977 22.1407 8.28207 22.1544 8.33606C22.2626 8.75615 22.376 9.18974 22.2146 9.56765C22.1561 9.70431 22.0634 9.82915 21.9638 9.96412C21.9019 10.0468 21.8384 10.1328 21.7834 10.2223C21.6185 10.4821 21.5378 10.7908 21.5567 11.0894C21.5825 11.5163 21.7714 11.7761 21.9552 12.0292C22.1682 12.3227 22.3709 12.6011 22.2712 13.1443V13.1494C22.2266 13.4025 22.1613 13.6522 22.0977 13.8833C22.0153 14.1752 21.9037 14.494 21.6271 14.6003C21.3368 14.6999 21.1238 14.5328 20.8782 14.3388C20.8198 14.2933 20.7597 14.2443 20.6979 14.2022C19.8665 13.5779 19.3014 12.623 19.1503 11.5804V11.5787Z" fill="white"></path>
    <path d="M32.6216 6.72996H39.4475V7.80465H33.9871V9.3956C33.9871 9.86462 34.3736 10.2442 34.8511 10.2442H39.2071V11.3257H33.9871V14.0655H39.6279V15.152H32.6233V6.72827L32.6216 6.72996Z" fill="white"></path>
    <path d="M44.2419 6.72998H45.8926L50.1077 15.1538H48.5927L47.4745 12.8205L42.5929 12.839L41.4833 15.1538H40.0439L44.2436 6.72998H44.2419ZM46.4302 11.7357C46.6758 11.7357 46.8373 11.486 46.7325 11.2683L45.3378 8.36648C45.2622 8.22139 45.233 8.12523 45.2175 8.0898L45.0372 7.72875L43.3418 11.2683C43.2371 11.486 43.3985 11.7357 43.6441 11.7357H46.4302Z" fill="white"></path>
    <path d="M54.9253 6.70457C56.9659 6.68095 58.2198 7.47221 58.237 8.87926C58.2421 9.3719 58.0532 9.80718 57.6822 10.1851C57.5396 10.3251 57.4297 10.4449 57.3198 10.5495C57.1222 10.7385 57.1497 11.0556 57.3764 11.2092C57.8488 11.5297 58.0498 12.1 58.0583 12.8524L58.0858 15.0912L56.7203 15.1064L56.6962 13.1696C56.6877 12.5082 56.5176 12.0527 56.1844 11.803C55.8357 11.555 55.2654 11.4403 54.4702 11.4504L51.8902 11.4808L51.9349 15.1621L50.5694 15.1773L50.4663 6.75518L54.9219 6.70288L54.9253 6.70457ZM51.8817 10.5546L54.6419 10.5225C56.0676 10.5056 56.856 9.97926 56.844 9.02773C56.8319 8.07788 56.0315 7.60549 54.6059 7.62236L51.8456 7.65441L51.8817 10.5546Z" fill="white"></path>
    <path d="M86.3604 6.70457C88.401 6.68095 89.6549 7.47221 89.672 8.87926C89.6772 9.3719 89.4883 9.80718 89.1172 10.1851C88.9747 10.3251 88.8647 10.4449 88.7548 10.5495C88.5573 10.7385 88.5848 11.0556 88.8115 11.2092C89.2838 11.5297 89.4848 12.1 89.4934 12.8524L89.5209 15.0912L88.1553 15.1064L88.1313 13.1696C88.1227 12.5082 87.9527 12.0527 87.6194 11.803C87.2708 11.555 86.7005 11.4403 85.9052 11.4504L83.3253 11.4808L83.37 15.1621L82.0044 15.1773L81.9014 6.75518L86.357 6.70288L86.3604 6.70457ZM83.3167 10.5546L86.077 10.5225C87.5026 10.5056 88.291 9.97926 88.279 9.02773C88.267 8.07788 87.4666 7.60549 86.0409 7.62236L83.2806 7.65441L83.3167 10.5546Z" fill="white"></path>
    <path d="M67.2102 6.72998V7.88397H64.2009C63.8659 7.88397 63.5945 8.15053 63.5945 8.47952V15.1538H62.229V8.47952C62.229 8.15053 61.9576 7.88397 61.6227 7.88397H58.5996V6.72998H67.2102Z" fill="white"></path>
    <path d="M69.2642 6.72998V10.2679H74.8449V6.72998H76.2104V15.1538H74.8449V11.987C74.8449 11.6766 74.5889 11.4269 74.2746 11.4269H69.8362C69.5201 11.4269 69.2659 11.6783 69.2659 11.987V15.1538H67.9004V6.72998H69.2659H69.2642Z" fill="white"></path>
    <path d="M101 6.72998V11.8875C101 12.4932 101.135 12.9976 101.407 13.3992C101.809 14.0048 102.486 14.3085 103.439 14.3085C104.581 14.3085 105.357 13.9812 105.768 13.3266C105.99 12.9706 106.099 12.4915 106.099 11.8892V6.73167H107.45V11.4185C107.45 12.4442 107.285 13.2338 106.957 13.7872C106.354 14.7944 105.217 15.2988 103.545 15.2988C101.874 15.2988 100.739 14.7944 100.141 13.7872C99.8128 13.2338 99.6479 12.4442 99.6479 11.4185V6.73167H100.998L101 6.72998Z" fill="white"></path>
    <path d="M108.15 6.72996H109.954L115.174 13.141C115.311 13.3097 115.59 13.2152 115.59 12.9976V6.72827H117.051V15.2955H115.332L109.614 8.38165V15.2955H108.152V6.72827L108.15 6.72996Z" fill="white"></path>
    <path d="M117.787 6.72996H122.302C123.836 6.72996 125.025 7.14836 125.87 7.98349C126.624 8.73763 127 9.70435 127 10.882C127 11.7913 126.777 12.6146 126.332 13.3485C125.547 14.6476 124.199 15.2955 122.287 15.2955H117.787V6.72827V6.72996ZM122.002 14.3051C122.508 14.3051 122.924 14.2646 123.25 14.182C123.833 14.0301 124.309 13.7382 124.68 13.308C124.975 12.9622 125.188 12.5185 125.319 11.9786C125.394 11.6563 125.432 11.356 125.432 11.081C125.432 10.0198 125.161 9.19484 124.616 8.60772C124.072 8.0206 123.196 7.72704 121.988 7.72704H119.712C119.503 7.72704 119.333 7.89407 119.333 8.0999V13.9323C119.333 14.1381 119.503 14.3051 119.712 14.3051H122.003H122.002Z" fill="white"></path>
    <path d="M94.5485 6.70459C96.2713 6.70459 97.6901 7.43511 98.4665 8.70045C98.8444 9.33312 99.035 10.0636 99.035 10.86C99.035 13.3434 97.1422 15.0322 94.5502 15.0322C91.9583 15.0322 90.0654 13.3434 90.0654 10.86C90.0654 8.37652 91.9205 6.70459 94.5502 6.70459H94.5485ZM94.5485 13.944C96.2713 13.944 97.35 12.7259 97.35 10.86C97.35 9.93542 97.1044 9.2049 96.5925 8.63634C96.0824 8.08465 95.4005 7.80796 94.5485 7.80796C93.6966 7.80796 93.0353 8.08465 92.5234 8.63634C92.0133 9.2049 91.747 9.93542 91.747 10.86C91.747 12.7259 92.8257 13.944 94.5468 13.944H94.5485Z" fill="white"></path>
  </g>
  <defs>
    <clipPath id="clip0_418_277">
      <rect width="127" height="22" fill="white"></rect>
    </clipPath>
  </defs>
</svg>
