<?xml version="1.0" encoding="UTF-8"?>
<svg xmlns="http://www.w3.org/2000/svg" width="174" height="42" viewBox="0 0 174 42" fill="none">
  <path d="M157.864 17.2476C157.864 18.0675 157.604 18.4322 156.866 18.4322H154.234C153.371 18.4322 153.11 18.1013 153.11 17.2476V15.2966C153.11 14.4767 153.398 14.1583 154.234 14.1583H156.866C157.569 14.1583 157.864 14.5181 157.864 15.2966V17.2476ZM157.749 22.206C157.715 22.5209 157.564 22.7766 157.386 22.9744C157.205 23.1716 156.902 23.2705 156.507 23.2705C156.148 23.2705 155.907 23.2011 155.783 23.0609C155.659 22.9218 155.585 22.6467 155.56 22.2375C155.501 22.6083 155.415 22.8498 155.324 22.9857C155.23 23.1251 155.137 23.1899 155.055 23.2211C154.972 23.252 154.743 23.2705 154.372 23.2705H153.157V21.5301H154.686C154.96 21.5301 155.088 21.5188 155.151 21.4457C155.22 21.3647 155.233 21.212 155.233 20.9529H153.157V19.0797H157.776V20.4086C157.776 21.2941 157.783 21.8928 157.749 22.206ZM156.214 25.9425V27.0921H155.162V25.9425H154.207V27.0921H153.155V24.0737H157.771V27.0921H156.72V25.9425H156.214ZM157.773 31.3087L153.153 32.379V30.4772L153.978 30.3763V29.7079L153.153 29.5952V27.6722L157.773 28.6252V31.3087ZM153.178 11.9413L155.157 11.4444H153.178V9.56891H157.796V11.4444H156.002L157.796 12.0164V13.7748L155.711 12.9723L153.178 13.8746V11.9413ZM163.664 0.000286535H136.973V41.9997H163.664C171.224 41.9997 174 39.5687 174 31.8619V9.05181C174 2.43105 170.812 0.000286535 163.664 0.000286535ZM154.791 29.6932V30.3294C155.308 30.2357 155.99 30.1418 156.755 30.0449C155.875 29.8621 155.194 29.7455 154.791 29.6932ZM156.469 16.0566H154.512C154.281 16.0566 154.176 16.1211 154.176 16.2929C154.176 16.4754 154.281 16.5335 154.512 16.5335H156.469C156.7 16.5335 156.809 16.4635 156.809 16.2929C156.809 16.1211 156.7 16.0566 156.469 16.0566ZM156.005 21.4011C156.043 21.4873 156.162 21.5301 156.367 21.5301H156.621C156.767 21.5301 156.864 21.4885 156.909 21.4063C156.954 21.3222 156.978 21.1724 156.978 20.9526H155.95C155.95 21.166 155.968 21.3149 156.005 21.4011ZM109.049 -3.04047e-07V42H135.38V32.4308H125.351V23.7414H135.38V14.1722H125.351V9.56919H135.38V-3.04047e-07H109.049ZM79.2154 -3.04047e-07V9.56919H89.3987L78.2386 33V42H107.603V32.4305H96.3925L107.603 8.79297V-3.04047e-07H79.2154ZM44.3813 -3.04047e-07L37.0272 42H53.8434L54.7696 32.8961H59.4493L60.3746 42H77.2426L69.8885 -3.04047e-07H44.3813ZM57.1349 9.36213L58.8319 23.6375H55.3866L57.1349 9.36213ZM18.1021 32.3787C19.9533 32.3787 20.4674 31.5519 20.4674 29.3791V12.5688C20.4674 10.396 19.9015 9.56919 18.1021 9.56919H16.3021V32.3787H18.1021ZM0 -3.04047e-07H26.6901C33.8384 -3.04047e-07 37.0266 2.43163 37.0266 9.05181V31.8617C37.0266 39.5687 34.2501 41.9994 26.6901 41.9994H0V-3.04047e-07Z" fill="white"></path>
</svg>
